<?xml version="1.0" encoding="utf-8"?>
<!-- Generator: Adobe Illustrator 18.1.1, SVG Export Plug-In . SVG Version: 6.00 Build 0)  -->
<svg version="1.1" id="Layer_1" xmlns="http://www.w3.org/2000/svg" xmlns:xlink="http://www.w3.org/1999/xlink" x="0px" y="0px"
	 viewBox="0 0 100 100" enable-background="new 0 0 100 100" xml:space="preserve" height="29" width="29">
<circle fill="#FFFFFF" cx="50" cy="50" r="50"/>
<g>
	<path fill="#000000" d="M74.6,54.1c-2.9,0-5.4,2.4-5.4,5.3c0,2.9,2.4,5.3,5.4,5.3c2.9,0,5.3-2.4,5.3-5.3
		C80,56.5,77.6,54.1,74.6,54.1z"/>
	<path fill="#000000" d="M26.8,54.1c-1.4,0-2.8,0.6-3.8,1.6c-1,1-1.6,2.4-1.6,3.8c0,2.9,2.4,5.3,5.3,5.3c2.9,0,5.3-2.4,5.3-5.3
		C32.2,56.5,29.8,54.1,26.8,54.1z"/>
	<rect x="35.9" y="15.8" fill="#000000" width="29.4" height="3.3"/>
	<path fill="#000000" d="M50,0C22.4,0,0,22.4,0,50c0,27.6,22.4,50,50,50c27.6,0,50-22.4,50-50C100,22.4,77.6,0,50,0z M31.5,83.2
		c0,1.1-0.5,1.9-1.3,2.5c-0.8,0.6-1.9,0.9-3,0.9c-2.3,0-4.7-1.2-4.7-3.5c0,0,0-5.1,0-5.6c0.6,0,8.5,0,9,0
		C31.5,78.1,31.5,83.2,31.5,83.2z M79.2,83c0,2.3-2.5,3.4-4.8,3.4c-2.3,0-4.9-1.1-4.9-3.4c0,0,0-5,0-5.5c0.6,0,9.1,0,9.7,0
		C79.2,78.1,79.2,83,79.2,83z M84.9,59.4v15.4c0,0.6-0.2,0.8-0.8,0.8H17.7c-0.6,0-1.1-0.4-1.1-0.8V56.5l0-6.6l0-16.9
		c0-2.2,0.6-6.6,1.8-11c0.8-2.8,3.1-4.5,4.4-5.3c13.9-8,41.5-8,56.8-0.1c1.9,1,2.7,3.2,3.4,5.2c1.2,3.3,1.9,8.2,1.9,11.2L84.9,59.4z
		"/>
	<path fill="#000000" d="M76.7,22.3H24.8c-1.3,0-2.3,1.3-2.3,2.3l-1.4,23.6c0,0.6,0.7,1.8,1.4,1.8h55.5c1.1,0,2.3-1,2.3-2l-1.7-22.8
		C78.7,23.7,77.4,22.3,76.7,22.3z M55.5,49c0.9-3,3.6-5.1,6.8-5.1c3.2,0,5.9,2.1,6.8,5.1C68.3,49,56.4,49,55.5,49z"/>
</g>
</svg>
