<?xml version="1.0" encoding="utf-8"?>

<!DOCTYPE svg PUBLIC "-//W3C//DTD SVG 1.1//EN" "http://www.w3.org/Graphics/SVG/1.1/DTD/svg11.dtd">
<svg version="1.1" id="Layer_1" xmlns="http://www.w3.org/2000/svg" xmlns:xlink="http://www.w3.org/1999/xlink" x="0px" y="0px"
	 width="203.909px" height="204.529px" viewBox="35 35 133.909 134.529" enable-background="new 0 0 203.909 204.529"
	 xml:space="preserve">
<g id="QzbziF_1_">
	<g>
		<path  fill="#FFF" fill-rule="evenodd" clip-rule="evenodd" d="M92.036,74.729c1.306-1.266,2.317-2.226,3.302-3.209
			c6.48-6.471,12.923-12.981,19.439-19.416c10.946-10.814,27.854-10.611,38.562,0.411c9.716,10.002,9.969,26.694,0.265,36.723
			c-9.186,9.494-18.535,18.836-28.028,28.022c-9.236,8.939-24.774,9.575-34.414,1.732c-2.839-2.31-3.491-4.897-1.914-8.229
			c1.363-2.877,3.454-5.015,6.685-5.747c2.083-0.472,3.937,0.307,5.746,1.196c2.835,1.395,5.811,2.036,8.84,0.975
			c1.553-0.544,3.145-1.42,4.307-2.562c8.812-8.668,17.54-17.422,26.252-26.191c4.234-4.263,4.197-10.667,0.021-14.781
			c-4.104-4.045-10.454-3.986-14.679,0.188c-4.65,4.42-8.653,8.464-13.198,13.131c-0.338,0.334-1.066,0.649-1.447,0.512
			C102.808,74.257,101.063,73.988,92.036,74.729z"/>
		<path fill-rule="evenodd" clip-rule="evenodd"  fill="#FFF" d="M112.587,130.37c-4.376,4.369-8.482,8.468-12.587,12.565
			c-3.012,3.006-5.922,6.12-9.052,8.997c-7.788,7.155-16.893,9.399-26.948,6.111c-10.125-3.313-16.262-10.57-18.133-21.016
			c-1.58-8.816,0.899-16.714,7.183-23.148c8.5-8.701,17.103-17.3,25.801-25.804c9.169-8.962,24.342-9.975,34.16-2.475
			c3.767,2.876,4.316,6.224,1.671,10.169c-2.932,4.376-6.736,5.417-11.544,3.097c-3.095-1.492-6.289-2.126-9.557-0.841
			c-1.356,0.535-2.691,1.396-3.729,2.421c-8.296,8.195-16.537,16.449-24.758,24.72c-4.164,4.19-4.168,10.594-0.094,14.68
			c4.093,4.105,10.45,4.133,14.676-0.014c3.965-3.889,7.871-7.843,11.781-11.789c0.544-0.548,0.958-0.814,1.789-0.428
			c5.81,2.705,11.907,3.625,18.265,2.76C111.744,130.342,111.987,130.37,112.587,130.37z"/>
	</g>
</g>
</svg>
