<?xml version="1.0" encoding="utf-8"?>
<!-- Generator: Adobe Illustrator 18.1.1, SVG Export Plug-In . SVG Version: 6.00 Build 0)  -->
<svg version="1.1" id="Layer_1" xmlns="http://www.w3.org/2000/svg" xmlns:xlink="http://www.w3.org/1999/xlink" x="0px" y="0px"
	 viewBox="0 0 100 100" enable-background="new 0 0 100 100" xml:space="preserve" width="29" height="29">
<circle fill="#FFFFFF" cx="50" cy="50" r="50"/>
<g>
	<polygon fill="#000000" points="53.9,2.9 45.9,3 49.8,5.5 	"/>
	<polygon fill="#000000" points="75.5,27.3 70.2,24 70.2,49.6 75.5,47.8 	"/>
	<path fill="#000000" d="M31.5,80.8h-10l-0.9-4.6l0.1-60.7h9.4l2-5.5l15.8-0.1V7.8l-7.8-4.8V1C17.2,5.6,0,25.8,0,50
		c0,19.6,11.3,36.6,27.8,44.8l3.7-4.4V80.8z"/>
	<path fill="#000000" d="M34,50.3h30.8c1.4,0,2.4-1,2.4-2.4V24.7c0-1.4-1-2.3-2.4-2.3H34c-1.4,0-2.4,1-2.4,2.3v23.2
		C31.7,49.3,32.7,50.3,34,50.3z"/>
	<path fill="#000000" d="M64.4,86.5H35.1v5.4l-3.4,4.7c5.7,2.2,11.8,3.5,18.3,3.5c6.5,0,12.7-1.3,18.5-3.5l-4-4.6L64.4,86.5z"/>
	<rect x="57.8" y="53.9" fill="#000000" width="9.4" height="5.5"/>
	<rect x="28.7" y="62.8" fill="#000000" width="41.2" height="4.6"/>
	<path fill="#000000" d="M100,50c0-24.4-17.5-44.7-40.5-49.1v2l-8,5v2.2l15.9,0.1l2,5.5l9.5,0.1v60.6L78,81h-10v9.6l4,4.3
		C88.5,86.8,100,69.8,100,50z"/>
	<rect x="31.9" y="53.9" fill="#000000" width="9.4" height="5.5"/>
	<polygon fill="#000000" points="28.8,23.8 23.6,27 23.6,47.5 28.8,49.3 	"/>
	<path fill="#000000" d="M68.5,96.5c0,0,0.6-0.2,1.8-0.7c1.2-0.6,1.6-0.8,1.6-0.8l0,0C70.8,95.5,69.6,96,68.5,96.5L68.5,96.5z"/>
	<path fill="#000000" d="M27.8,94.8c0,0,0.6,0.3,2.1,1c1.3,0.6,1.9,0.8,1.9,0.8l0,0C30.4,96,29.1,95.4,27.8,94.8L27.8,94.8z"/>
</g>
</svg>
