<svg xmlns="http://www.w3.org/2000/svg" viewBox="0 0 100.03 99.99"><title>multimodal-icon</title><path d="M19.4,63.24c-.53-.26-1.06-.46-1.59-.79Z"/><path d="M27.68,55l-6,9.2a32.9,32.9,0,0,0,22.51.13L38.07,55Z"/><path d="M20.46,63.7c-.2-.07-.4-.2-.6-.26A2.35,2.35,0,0,0,20.46,63.7Z"/><path d="M45,64c-.26.13-.6.2-.86.33A4.6,4.6,0,0,0,45,64Z"/><path d="M48.07,62.64c-.93.46-1.79.86-2.78,1.26C46.22,63.5,47.15,63.1,48.07,62.64Z"/><path d="M66.22,33.11a33.11,33.11,0,1,0-48.4,29.33l5-7.55a4.93,4.93,0,0,1-3.18-2.38L18.14,49.4a12,12,0,0,1-1.06-5.3l1.46-27.28a4.45,4.45,0,0,1,4.37-4h4.24c-.66-1.72-1.85-4.64-2-5C23.37,8,23,8.21,23,8.28l-.13.33.07-.2a.86.86,0,0,1-.86.79,1.13,1.13,0,0,1-1-1c0-1.46,2.25-1.85,4.17-2.05a60.57,60.57,0,0,1,7.68-.4,60.57,60.57,0,0,1,7.68.4c1.92.2,4.17.66,4.17,2.05a1.13,1.13,0,0,1-1,1,.86.86,0,0,1-.86-.79l.07.2a1.7,1.7,0,0,1-.13-.33c-.07-.07-.4-.26-2.19-.4-.13.33-1.32,3.24-2,5h3.91a4.3,4.3,0,0,1,4.37,4L48.67,44.1a12.3,12.3,0,0,1-1.13,5.3L46,52.51a4.8,4.8,0,0,1-3.11,2.38L48,62.64A33,33,0,0,0,66.22,33.11Z"/><path d="M25.76,21.45h14a2.13,2.13,0,0,0,2.12-2.12v-.73a2.09,2.09,0,0,0-2.12-2.12h-14a2.09,2.09,0,0,0-2.12,2.12v.73A2.09,2.09,0,0,0,25.76,21.45Z"/><path d="M36.49,12.85c.66-1.66,1.79-4.44,2-5-1.46,0-4.57-.07-5.56-.07s-4.11.07-5.56.07c.26.6,1.39,3.44,2,5Z"/><path d="M24.76,46a2.78,2.78,0,1,0,2.78,2.78A2.8,2.8,0,0,0,24.76,46Z"/><path d="M45.56,41.58l-.93-16.09a2.3,2.3,0,0,0-2.25-2.12H23.51a2.37,2.37,0,0,0-2.32,2.19l-.93,16.09a2,2,0,0,0,2,2.19H43.64A2,2,0,0,0,45.56,41.58Z"/><path d="M40.79,46a2.78,2.78,0,1,0,2.78,2.78A2.8,2.8,0,0,0,40.79,46Z"/><path d="M45.29,63.9c-.07.07-.2.07-.26.13A.5.5,0,0,1,45.29,63.9Z"/><path d="M17.81,62.44Z"/><path d="M48.07,62.64Z"/><path d="M44.1,64.3h0Z"/><path d="M19.86,63.44l-.46-.2Z"/><path d="M21.65,64.16h0c-.4-.13-.79-.33-1.19-.46A8.84,8.84,0,0,0,21.65,64.16Z"/><path d="M41.79,85.41c1.42-3.93,3.55-7.23,7.66-8.84A12.11,12.11,0,1,1,43.11,93.3c-.5-1-.88-2-1.32-3ZM62.4,88.28a8.49,8.49,0,1,0-8.92,8A8.54,8.54,0,0,0,62.4,88.28Z"/><path d="M100,90.26l-1,2.21a12.13,12.13,0,1,1,0-9.27l1,2.21ZM87.92,96.32a8.48,8.48,0,1,0-8.51-8.46A8.53,8.53,0,0,0,87.92,96.32Z"/><path d="M87.78,66.1v4.6c-5.61.18-11.62,1.92-14-6L68.19,70.9c6,1.83,5.39,6.81,5.16,11.69-.11,2.41,0,4.82,0,7.45H69c0-3.23.14-6.53-.08-9.81a4.74,4.74,0,0,0-1.7-3.07c-1.91-1.46-4.13-2.51-6.15-3.85-2.81-1.87-3.13-4.41-.81-6.85,2.79-2.92,5.64-5.78,8.57-8.56,2.3-2.17,4.84-1.79,6.68.82a4,4,0,0,1,.31.52C78.24,64.09,80.72,68.81,87.78,66.1Z"/><path d="M84.91,53.73a4.3,4.3,0,1,1-4.57-4.16A4.24,4.24,0,0,1,84.91,53.73Z"/><path d="M42.33,84.17c-.87,1.38-1.08,5.58-.17,6.83s1.42-4,1.42-4Z"/></svg>