<?xml version="1.0" encoding="utf-8"?>
<!-- Generator: Adobe Illustrator 21.0.0, SVG Export Plug-In . SVG Version: 6.00 Build 0)  -->
<svg version="1.1" id="Layer_1" xmlns="http://www.w3.org/2000/svg" xmlns:xlink="http://www.w3.org/1999/xlink" x="0px" y="0px"
	 viewBox="0 0 100 100" style="enable-background:new 0 0 100 100;" xml:space="preserve">
<title>multimodal-icon</title>
<path d="M19.4,63.2c-0.5-0.3-1.1-0.5-1.6-0.8L19.4,63.2z"/>
<path d="M27.7,55l-6,9.2c7.3,2.7,15.2,2.7,22.5,0.1L38.1,55H27.7z"/>
<path d="M20.5,63.7c-0.2-0.1-0.4-0.2-0.6-0.3C20,63.6,20.2,63.6,20.5,63.7z"/>
<path d="M45,64c-0.3,0.1-0.6,0.2-0.9,0.3C44.4,64.2,44.7,64.1,45,64z"/>
<path d="M48.1,62.6c-0.9,0.5-1.8,0.9-2.8,1.3C46.2,63.5,47.2,63.1,48.1,62.6z"/>
<path d="M66.2,33.1C66.2,14.8,51.4,0,33.1,0S0,14.7,0,33c0,12.4,6.9,23.7,17.8,29.4l5-7.5c-1.3-0.3-2.5-1.2-3.2-2.4l-1.5-3.1
	c-0.8-1.7-1.1-3.5-1.1-5.3l1.5-27.3c0.2-2.3,2.1-4,4.4-4h4.2c-0.7-1.7-1.9-4.6-2-5C23.4,8,23,8.2,23,8.3l-0.1,0.3l0.1-0.2
	c0,0.4-0.4,0.8-0.9,0.8c-0.5-0.1-0.9-0.5-1-1c0-1.5,2.3-1.8,4.2-2.1c2.5-0.3,5.1-0.4,7.7-0.4c2.6,0,5.1,0.1,7.7,0.4
	c1.9,0.2,4.2,0.7,4.2,2.1c-0.1,0.5-0.5,0.9-1,1c-0.4,0-0.8-0.3-0.9-0.8L43,8.6c-0.1-0.1-0.1-0.2-0.1-0.3c-0.1-0.1-0.4-0.3-2.2-0.4
	c-0.1,0.3-1.3,3.2-2,5h3.9c2.3,0,4.2,1.7,4.4,4l1.7,27.2c0,1.8-0.4,3.6-1.1,5.3L46,52.5c-0.7,1.2-1.8,2.1-3.1,2.4l5.1,7.8
	C59.2,57,66.2,45.6,66.2,33.1z"/>
<path d="M25.8,21.5h14c1.2,0,2.1-1,2.1-2.1v-0.7c0-1.2-0.9-2.1-2.1-2.1c0,0,0,0-0.1,0h-14c-1.2,0-2.1,0.9-2.1,2.1c0,0,0,0,0,0.1v0.7
	C23.6,20.5,24.5,21.4,25.8,21.5C25.7,21.5,25.7,21.5,25.8,21.5z"/>
<path d="M36.5,12.9c0.7-1.7,1.8-4.4,2-5c-1.5,0-4.6-0.1-5.6-0.1s-4.1,0.1-5.6,0.1c0.3,0.6,1.4,3.4,2,5H36.5z"/>
<path d="M24.8,46c-1.5,0-2.8,1.2-2.8,2.8c0,1.5,1.2,2.8,2.8,2.8c1.5,0,2.8-1.2,2.8-2.8l0,0C27.5,47.2,26.3,46,24.8,46z"/>
<path d="M45.6,41.6l-0.9-16.1c-0.1-1.2-1.1-2.1-2.3-2.1H23.5c-1.2,0-2.2,1-2.3,2.2l-0.9,16.1c-0.1,1.1,0.7,2.1,1.8,2.2
	c0.1,0,0.1,0,0.2,0h21.4c1.1,0,2-1,1.9-2.1C45.6,41.7,45.6,41.6,45.6,41.6z"/>
<path d="M40.8,46c-1.5,0-2.8,1.2-2.8,2.8c0,1.5,1.2,2.8,2.8,2.8c1.5,0,2.8-1.2,2.8-2.8c0,0,0,0,0,0C43.6,47.2,42.3,46,40.8,46z"/>
<path d="M45.3,63.9C45.2,64,45.1,64,45,64C45.1,64,45.2,63.9,45.3,63.9z"/>
<path d="M17.8,62.4"/>
<path d="M48.1,62.6"/>
<path d="M44.1,64.3L44.1,64.3z"/>
<path d="M19.9,63.4l-0.5-0.2L19.9,63.4z"/>
<path d="M21.6,64.2L21.6,64.2c-0.4-0.1-0.8-0.3-1.2-0.5C20.8,63.9,21.2,64,21.6,64.2z"/>
<g>
	<path d="M83.6,49.7c0.1,2.6-1.9,4.7-4.5,4.8c-2.6,0.1-4.7-1.9-4.8-4.5c-0.1-2.5,1.9-4.6,4.4-4.8c2.5-0.2,4.8,1.7,5,4.2
		C83.6,49.5,83.6,49.6,83.6,49.7z"/>
	<g>
		<path d="M36.7,84.1c1.5-4.3,3.9-7.9,8.3-9.6c6.8-2.7,14.4,0.6,17.1,7.4c2.7,6.8-0.6,14.4-7.4,17.1c-6.3,2.5-13.5-0.2-16.6-6.3
			c-0.5-1.1-1-2.2-1.4-3.3V84.1z M59.1,87.3c0.3-5.1-3.6-9.4-8.7-9.7c-5.1-0.3-9.4,3.6-9.7,8.7c-0.3,5.1,3.6,9.4,8.7,9.7
			c0,0,0,0,0,0C54.5,96.2,58.8,92.3,59.1,87.3z"/>
		<path d="M100,89.4l-1.1,2.4c-2.8,6.7-10.5,9.9-17.2,7.1c-6.7-2.8-9.9-10.5-7.1-17.2c2.8-6.7,10.5-9.9,17.2-7.1
			c3.2,1.3,5.8,3.9,7.1,7.1l1.1,2.4V89.4z M86.9,96c5.1,0,9.2-4.2,9.2-9.2c0-5.1-4.2-9.2-9.2-9.2c-5.1,0-9.2,4.2-9.2,9.2
			C77.7,91.9,81.8,96,86.9,96z"/>
		<path d="M86.7,63.2v5c-6.1,0.2-12.6,2.1-15.2-6.5l-6.1,6.7c6.5,2,5.9,7.4,5.6,12.7c-0.1,2.6,0,5.2,0,8.1h-4.7
			c0-3.5,0.2-7.1-0.1-10.7c-0.2-1.3-0.8-2.5-1.8-3.3c-2.1-1.6-4.5-2.7-6.7-4.2c-3.1-2-3.4-4.8-0.9-7.4c3-3.2,6.1-6.3,9.3-9.3
			c2.5-2.4,5.3-1.9,7.3,0.9c0.1,0.2,0.2,0.4,0.3,0.6C76.3,61,79,66.1,86.7,63.2z"/>
		<path d="M37.3,82.8c-0.9,1.5-1.2,6.1-0.2,7.4c1,1.4,1.5-4.3,1.5-4.3L37.3,82.8z"/>
	</g>
</g>
<g>
	<path d="M71.8,0c5.6,0,11-0.2,16.3,0.1c6.8,0.3,12.1,6.4,12.1,13.3c-0.1,6.9-5.5,12.6-12.4,13c-2.4,0.1-4.7,0-7.4,0
		c0,2.3,0,4.4,0,6.5c0,2.1,0,4.2,0,6.5c-2.9,0-5.6,0-8.6,0C71.8,26.4,71.8,13.4,71.8,0z M80.5,17.6c2.6,0,4.9,0.1,7.1,0
		c2.4-0.1,4.2-2,4.2-4.2c0.1-2.1-1.6-4.2-3.7-4.4c-2.5-0.2-5,0-7.6,0C80.5,11.9,80.5,14.6,80.5,17.6z"/>
</g>
</svg>
