<?xml version="1.0" encoding="utf-8"?>
<!-- Generator: Adobe Illustrator 21.0.0, SVG Export Plug-In . SVG Version: 6.00 Build 0)  -->
<svg version="1.1" id="Layer_1" xmlns="http://www.w3.org/2000/svg" xmlns:xlink="http://www.w3.org/1999/xlink" x="0px" y="0px"
	 viewBox="0 0 100 100" style="enable-background:new 0 0 100 100;" xml:space="preserve">
<style type="text/css">
	.st0{fill:#FFFFFF;}
</style>
<title>multimodal-icon</title>
<g>
	<path d="M83.6,49.7c0.1,2.6-1.9,4.7-4.5,4.8s-4.7-1.9-4.8-4.5c-0.1-2.5,1.9-4.6,4.4-4.8s4.8,1.7,5,4.2
		C83.6,49.5,83.6,49.6,83.6,49.7z"/>
	<g>
		<path d="M36.7,84.1c1.5-4.3,3.9-7.9,8.3-9.6c6.8-2.7,14.4,0.6,17.1,7.4S61.5,96.3,54.7,99c-6.3,2.5-13.5-0.2-16.6-6.3
			c-0.5-1.1-1-2.2-1.4-3.3C36.7,89.4,36.7,84.1,36.7,84.1z M59.1,87.3c0.3-5.1-3.6-9.4-8.7-9.7c-5.1-0.3-9.4,3.6-9.7,8.7
			c-0.3,5.1,3.6,9.4,8.7,9.7l0,0C54.5,96.2,58.8,92.3,59.1,87.3z"/>
		<path d="M100,89.4l-1.1,2.4c-2.8,6.7-10.5,9.9-17.2,7.1c-6.7-2.8-9.9-10.5-7.1-17.2c2.8-6.7,10.5-9.9,17.2-7.1
			c3.2,1.3,5.8,3.9,7.1,7.1l1.1,2.4V89.4z M86.9,96c5.1,0,9.2-4.2,9.2-9.2c0-5.1-4.2-9.2-9.2-9.2c-5.1,0-9.2,4.2-9.2,9.2
			C77.7,91.9,81.8,96,86.9,96z"/>
		<path d="M86.7,63.2v5c-6.1,0.2-12.6,2.1-15.2-6.5l-6.1,6.7c6.5,2,5.9,7.4,5.6,12.7c-0.1,2.6,0,5.2,0,8.1h-4.7
			c0-3.5,0.2-7.1-0.1-10.7c-0.2-1.3-0.8-2.5-1.8-3.3c-2.1-1.6-4.5-2.7-6.7-4.2c-3.1-2-3.4-4.8-0.9-7.4c3-3.2,6.1-6.3,9.3-9.3
			c2.5-2.4,5.3-1.9,7.3,0.9c0.1,0.2,0.2,0.4,0.3,0.6C76.3,61,79,66.1,86.7,63.2z"/>
		<path d="M37.3,82.8c-0.9,1.5-1.2,6.1-0.2,7.4c1,1.4,1.5-4.3,1.5-4.3L37.3,82.8z"/>
	</g>
</g>
<g>
	<path d="M71.8,0c5.6,0,11-0.2,16.3,0.1c6.8,0.3,12.1,6.4,12.1,13.3c-0.1,6.9-5.5,12.6-12.4,13c-2.4,0.1-4.7,0-7.4,0
		c0,2.3,0,4.4,0,6.5s0,4.2,0,6.5c-2.9,0-5.6,0-8.6,0C71.8,26.4,71.8,13.4,71.8,0z M80.5,17.6c2.6,0,4.9,0.1,7.1,0
		c2.4-0.1,4.2-2,4.2-4.2c0.1-2.1-1.6-4.2-3.7-4.4c-2.5-0.2-5,0-7.6,0C80.5,11.9,80.5,14.6,80.5,17.6z"/>
</g>
<circle class="st0" cx="32.6" cy="32.6" r="32.3"/>
<g>
	<g>
		<path d="M64.9,32.5c0,17.8-14.4,32.3-32.3,32.3S0.4,50.3,0.4,32.5S14.8,0.3,32.6,0.3S64.9,14.7,64.9,32.5z"/>
	</g>
	<path class="st0" d="M49.7,23.5C48.9,14.8,41.7,8,32.8,8c-8.8,0-16.1,6.7-17,15.4c-4.5,3.4-6.9,8.4-6.9,13.7c0,2.9,0.8,5.9,2.3,8.5
		C14.4,51,20.1,54,26,54c2.3,0,4.5-0.5,6.6-1.4c2.2,1,4.5,1.4,6.7,1.4l0,0c5.9,0,11.6-3.1,14.8-8.5c1.5-2.7,2.3-5.6,2.3-8.5
		C56.4,31.9,54,26.8,49.7,23.5z M32.8,13.2c5,0,9.2,3,11,7.4c-1.4-0.4-2.9-0.6-4.3-0.6c-5.9,0-11.6,3-14.8,8.5
		c-0.6,1.1-1.1,2.3-1.5,3.5c-1.4-1.9-2.3-4.3-2.3-7C20.9,18.5,26.2,13.2,32.8,13.2z M36.2,31.1c0.8,1.5,1.4,3.1,1.5,4.7
		c-1.5,0.7-3.2,1.2-5,1.2c-1.9,0-3.6-0.5-5.2-1.2c0.2-1.5,0.6-3.2,1.5-4.6c0.9-1.6,2.2-2.9,3.6-3.9C34.1,28.2,35.3,29.5,36.2,31.1z
		 M15.7,42.9C14.6,41.1,14,39,14,37c0-2.5,0.8-5,2.3-7c2.1,7,8.6,12.1,16.4,12.1c1.4,0,2.8-0.2,4.2-0.5c-1,2.3-2.6,4.4-5,5.7
		C30,48.4,28,48.9,26,48.9C21.9,48.9,17.9,46.8,15.7,42.9z M49.7,43c-2.2,3.8-6.2,5.9-10.3,5.9c-0.4,0-0.8-0.1-1.1-0.1
		c3.1-3.2,4.8-7.5,4.8-11.9c0-2.9-0.7-5.8-2.3-8.5c-0.7-1.2-1.5-2.3-2.5-3.2c0.4-0.1,0.7-0.1,1.1-0.1c2,0,4.1,0.5,5.9,1.6
		c3.8,2.2,5.9,6.2,5.9,10.3C51.3,39.1,50.7,41.1,49.7,43z"/>
</g>
</svg>
