<?xml version="1.0" standalone="no"?>
<!DOCTYPE svg PUBLIC "-//W3C//DTD SVG 20010904//EN"
 "http://www.w3.org/TR/2001/REC-SVG-20010904/DTD/svg10.dtd">
<svg version="1.0" xmlns="http://www.w3.org/2000/svg"
 width="400.000000pt" height="400.000000pt" viewBox="0 0 400.000000 400.000000"
 preserveAspectRatio="xMidYMid meet">
<metadata>
Created by potrace 1.12, written by Peter Selinger 2001-2015
</metadata>
<g transform="translate(0.000000,400.000000) scale(0.100000,-0.100000)"
fill="#000000" stroke="none">
<path d="M1638 3980 c-809 -149 -1432 -756 -1610 -1570 -21 -96 -23 -130 -23
-395 0 -331 8 -385 91 -635 296 -890 1184 -1454 2118 -1345 933 109 1661 849
1756 1784 94 932 -486 1812 -1381 2095 -218 70 -284 79 -579 82 -229 3 -280 1
-372 -16z m572 -354 c63 -8 144 -22 180 -31 152 -40 379 -146 530 -248 110
-75 332 -301 409 -417 128 -191 234 -450 262 -635 8 -52 14 -171 14 -280 0
-109 -6 -228 -14 -280 -28 -185 -135 -445 -261 -633 -76 -114 -255 -302 -368
-387 -148 -111 -366 -220 -541 -271 -133 -38 -319 -57 -501 -50 -265 9 -406
44 -635 155 -194 95 -292 165 -450 325 -159 159 -215 237 -310 431 -131 266
-159 392 -159 710 0 318 28 444 159 710 97 197 151 272 314 435 162 162 230
211 427 311 204 102 316 135 559 163 76 8 281 4 385 -8z"/>
<path d="M1335 3323 c-46 -24 -76 -54 -96 -98 -18 -38 -19 -94 -19 -1215 l0
-1176 23 -44 c12 -24 39 -58 60 -74 l39 -31 634 -3 c608 -2 635 -2 671 17 46
23 64 42 92 98 21 42 21 44 19 885 l-3 843 -523 5 -524 5 -24 28 c-28 33 -31
77 -6 105 35 39 238 210 270 226 52 27 84 -1 151 -129 51 -97 89 -135 134
-135 84 0 419 145 489 211 l38 36 0 149 c0 135 -2 154 -24 199 -27 58 -47 78
-99 100 -31 13 -120 15 -654 15 -544 -1 -622 -3 -648 -17z m1140 -1145 c55
-25 55 -20 55 -617 0 -405 -3 -557 -12 -576 -25 -55 -26 -55 -548 -55 -522 0
-523 0 -548 55 -9 19 -12 171 -12 578 1 591 0 585 51 613 33 18 974 20 1014 2z"/>
</g>
</svg>
