<svg xmlns="http://www.w3.org/2000/svg" xmlns:xlink="http://www.w3.org/1999/xlink" version="1.1" id="Layer_1" x="0px" y="0px" width="100px" height="100px" viewBox="0 0 100 100" enable-background="new 0 0 100 100" xml:space="preserve">
<path d="M49.523,6.001c-24.737,0-44.79,20.053-44.79,44.789c0,24.737,20.053,44.79,44.79,44.79c24.736,0,44.789-20.053,44.789-44.79  C94.312,26.054,74.259,6.001,49.523,6.001z M43.232,49.083l-0.094,32.524c0,0,0.377,2.639-2.639,2.639  c-3.017,0-2.923-2.828-2.923-2.828l0.095-32.335c0,0-3.771-4.337-4.526-4.996c-0.754-0.66-1.037-3.582-1.037-3.582l0.471-16.498  c0,0,0-1.838,1.273-1.838c1.274,0,1.461,1.461,1.461,1.461v11.878c0,0-0.095,2.451,1.697,2.451c1.791,0,2.357-1.98,2.357-1.98  V23.158c0,0,0-1.508,1.037-1.508c1.037,0,1.037,1.225,1.037,1.225l0.283,12.915c0,0,0.283,2.168,1.885,2.168  s1.697-2.168,1.697-2.168V25.232c0,0,0.188-3.299,1.603-3.299c1.414,0,1.414,3.299,1.414,3.299s-0.095,14.235-0.095,15.649  c0,1.414-0.943,2.923-0.943,2.923L43.232,49.083z M57.467,84.624c0,0-9.427-0.472-9.427-12.539c0-12.067,5.562-13.575,5.562-13.575  V25.326c0,0,0.377-3.252,3.252-3.252s3.064,3.818,3.064,3.818V58.51c0,0,5.562,1.603,5.562,13.669S57.467,84.624,57.467,84.624z"/>
</svg>