<?xml version="1.0" encoding="utf-8"?>
<!-- Generator: Adobe Illustrator 18.1.1, SVG Export Plug-In . SVG Version: 6.00 Build 0)  -->
<svg version="1.1" id="Layer_1" xmlns="http://www.w3.org/2000/svg" xmlns:xlink="http://www.w3.org/1999/xlink" x="0px" y="0px"
	 viewBox="0 0 100 100" enable-background="new 0 0 100 100" xml:space="preserve">
<circle fill="#FFFFFF" cx="50" cy="50" r="50"/>
<g>
	<g>
		<path fill="#000000" d="M100,50c0,27.6-22.4,50-50,50C22.4,100,0,77.6,0,50C0,22.4,22.4,0,50,0C77.6,0,100,22.4,100,50z"/>
	</g>
	<path fill="#FFFFFF" d="M76.5,36.1C75.3,22.6,64,12,50.2,12c-13.7,0-25,10.4-26.3,23.8C17,41,13.2,48.9,13.2,57
		c0,4.5,1.2,9.1,3.6,13.2c4.9,8.5,13.8,13.2,22.9,13.2c3.5,0,7-0.7,10.3-2.1c3.4,1.5,6.9,2.2,10.4,2.2c0,0,0,0,0,0
		c9.1,0,18-4.8,22.9-13.2c2.4-4.2,3.5-8.7,3.5-13.2C86.9,49,83.2,41.2,76.5,36.1z M50.2,20.1c7.7,0,14.3,4.7,17,11.4
		c-2.2-0.6-4.5-0.9-6.7-0.9c-9.1,0-18,4.7-22.9,13.2c-1,1.7-1.7,3.5-2.3,5.4c-2.2-3-3.5-6.7-3.5-10.8C31.8,28.3,40,20.1,50.2,20.1z
		 M55.6,47.8c1.3,2.3,2.1,4.8,2.3,7.3c-2.4,1.1-5,1.8-7.8,1.8c-2.9,0-5.6-0.7-8-1.9c0.3-2.4,1-4.9,2.3-7.2c1.4-2.5,3.4-4.5,5.6-6
		C52.3,43.4,54.2,45.4,55.6,47.8z M23.7,66.2c-1.7-2.9-2.5-6.1-2.5-9.2c0-3.9,1.3-7.8,3.6-10.9C28.1,57,38.2,64.9,50.2,64.9
		c2.2,0,4.4-0.3,6.5-0.8c-1.5,3.6-4.1,6.8-7.8,8.9c-2.9,1.7-6.1,2.5-9.2,2.5C33.3,75.4,27.1,72.1,23.7,66.2z M76.4,66.3
		c-3.4,5.9-9.6,9.2-15.9,9.2c-0.6,0-1.2-0.1-1.7-0.1c4.8-5,7.4-11.6,7.4-18.4c0-4.5-1.1-9-3.5-13.2c-1.1-1.9-2.4-3.5-3.8-5
		c0.6-0.1,1.1-0.1,1.7-0.1c3.1,0,6.3,0.8,9.2,2.5c5.9,3.4,9.2,9.6,9.2,16C78.9,60.2,78.1,63.4,76.4,66.3z"/>
</g>
</svg>
