<?xml version="1.0" encoding="utf-8"?>
<!-- Generator: Adobe Illustrator 18.1.1, SVG Export Plug-In . SVG Version: 6.00 Build 0)  -->
<svg version="1.1" id="Layer_1" xmlns="http://www.w3.org/2000/svg" xmlns:xlink="http://www.w3.org/1999/xlink" x="0px" y="0px"
	 viewBox="0 0 100 100" enable-background="new 0 0 100 100" xml:space="preserve">
<circle fill="#FFFFFF" cx="50" cy="50" r="50"/>
<g>
	<path fill="#000000" d="M29.3,95.5c-0.8-0.4-1.6-0.7-2.4-1.2C27.7,94.7,28.5,95.1,29.3,95.5z"/>
	<path fill="#000000" d="M41.8,83.1l-9.1,13.9c5.4,2,11.2,3.1,17.3,3.1c5.8,0,11.4-1,16.7-2.9l-9.2-14.1L41.8,83.1z"/>
	<path fill="#000000" d="M30.9,96.2c-0.3-0.1-0.6-0.3-0.9-0.4C30.3,96,30.6,96.1,30.9,96.2z"/>
	<path fill="#000000" d="M68,96.6c-0.4,0.2-0.9,0.3-1.3,0.5C67.1,97,67.6,96.8,68,96.6z"/>
	<path fill="#000000" d="M72.6,94.6c-1.4,0.7-2.7,1.3-4.2,1.9C69.8,95.9,71.2,95.3,72.6,94.6z"/>
	<path fill="#000000" d="M100,50c0-27.6-22.4-50-50-50C22.4,0,0,22.4,0,50c0,19.3,10.9,36,26.9,44.3l7.6-11.4c-2-0.5-4-1.9-4.8-3.6
		l-2.3-4.7c-1-2.1-1.8-5.6-1.6-8L28,25.4c0-2.9,3.1-6,6.6-6H41c-1-2.6-2.8-7-3-7.5c-2.7,0.2-3.2,0.5-3.3,0.6c0,0-0.2,0.5-0.2,0.5
		l0.1-0.3c-0.1,0.7-0.6,1.2-1.3,1.2c-0.7,0-1.5-0.8-1.5-1.5c0-2.2,3.4-2.8,6.3-3.1c2.2-0.3,6.1-0.6,11.6-0.6c5.5,0,9.4,0.3,11.6,0.6
		c2.9,0.3,6.3,1,6.3,3.1c0,0.7-0.8,1.5-1.5,1.5c-0.7,0-1.2-0.5-1.3-1.2l0.1,0.3c0,0-0.2-0.4-0.2-0.5c-0.1-0.1-0.6-0.4-3.3-0.6
		c-0.2,0.5-2,4.9-3,7.5h5.9c3.7,0,6.5,2.9,6.6,6l2.6,41.2c0.1,2.3-0.6,5.9-1.7,8l-2.4,4.7c-0.8,1.7-2.7,3.1-4.7,3.6l7.8,11.7
		C88.8,86.4,100,69.5,100,50z"/>
	<path fill="#000000" d="M38.9,32.4h21.2c1.8,0,3.2-1.5,3.2-3.2v-1.1c0-1.8-1.4-3.2-3.2-3.2H38.9c-1.8,0-3.2,1.4-3.2,3.2v1.1
		C35.7,31,37.1,32.4,38.9,32.4z"/>
	<path fill="#000000" d="M55.1,19.4c1-2.5,2.7-6.7,3-7.6c-2.2,0-6.9-0.1-8.4-0.1c-1.5,0-6.2,0.1-8.4,0.1c0.4,0.9,2.1,5.2,3,7.6H55.1
		z"/>
	<path fill="#000000" d="M37.4,69.5c-2.3,0-4.2,1.9-4.2,4.2c0,2.3,1.9,4.2,4.2,4.2c2.3,0,4.2-1.9,4.2-4.2
		C41.6,71.4,39.7,69.5,37.4,69.5z"/>
	<path fill="#000000" d="M68.8,62.8l-1.4-24.3c-0.1-1.8-1.7-3.2-3.4-3.2l-28.5,0c-1.8,0-3.4,1.5-3.5,3.3l-1.4,24.3
		c-0.1,1.8,1.2,3.3,3,3.3h32.3C67.6,66.1,69,64.6,68.8,62.8z"/>
	<path fill="#000000" d="M61.6,69.5c-2.3,0-4.2,1.9-4.2,4.2c0,2.3,1.9,4.2,4.2,4.2c2.3,0,4.2-1.9,4.2-4.2
		C65.8,71.4,63.9,69.5,61.6,69.5z"/>
	<path fill="#000000" d="M68.4,96.5c-0.1,0.1-0.3,0.1-0.4,0.2C68.1,96.6,68.3,96.5,68.4,96.5z"/>
	<path fill="#000000" d="M26.9,94.3C26.9,94.3,26.9,94.3,26.9,94.3C26.9,94.3,26.9,94.3,26.9,94.3L26.9,94.3z"/>
	<polygon fill="#000000" points="72.6,94.6 72.6,94.6 72.6,94.6 	"/>
	<polygon fill="#000000" points="66.6,97.1 66.7,97.1 66.6,97.1 	"/>
	<path fill="#000000" d="M30,95.8c-0.2-0.1-0.5-0.2-0.7-0.3C29.5,95.6,29.8,95.7,30,95.8z"/>
	<path fill="#000000" d="M32.7,96.9L32.7,96.9c-0.6-0.2-1.2-0.5-1.8-0.7C31.5,96.5,32.1,96.7,32.7,96.9z"/>
</g>
</svg>
