<?xml version="1.0" encoding="utf-8"?>
<!-- Generator: Adobe Illustrator 21.0.0, SVG Export Plug-In . SVG Version: 6.00 Build 0)  -->
<svg version="1.1" id="Layer_1" xmlns="http://www.w3.org/2000/svg" xmlns:xlink="http://www.w3.org/1999/xlink" x="0px" y="0px"
	 viewBox="0 0 100 100" style="enable-background:new 0 0 100 100;" xml:space="preserve">
<style type="text/css">
	.st0{fill:#231F20;}
</style>
<path class="st0" d="M50,0C22.4,0,0,22.4,0,50s22.4,50,50,50s50-22.4,50-50S77.6,0,50,0z M52.5,24.8c1.1-2.6,3.1-4.4,5.7-5.6
	c3.5-1.5,7.2-1.6,11-1.3c0.7,3.3-0.3,7.3-3.5,9.5c-2.4,1.7-5.1,2.2-7.9,2c-1.3-0.1-2.6-0.4-3.9-0.7c4.6-1.8,8.5-4.2,11.6-8.1
	c-4.5,2.1-9,4.3-13.6,6.4c0-0.1,0-0.1-0.1-0.2C52,26.1,52.2,25.4,52.5,24.8z M44.7,23.8c0.2-0.2,0.3-0.4,0.4-0.7
	c3.4,1.1,5.7,4.5,5.5,8.2c-1.1-0.3-2.2-0.7-3.4-1c-0.1-0.8-0.2-1.7-0.5-2.6c-0.3-1.1-0.8-2.1-1.7-2.8C44.6,24.6,44.5,24.3,44.7,23.8
	z M77.4,53.9c-0.1,0.4-0.1,0.8-0.2,1.2c-1.2,8.2-4.6,15.5-10.1,21.8c-3.7,4.2-8.2,6.1-13.9,5.2c-2.5-0.5-5.1-0.4-7.6,0
	c-3.2,0.5-6.2-0.2-9-2c-2.9-1.9-5.2-4.4-7.2-7.2c-3.4-4.7-5.9-9.9-7.2-15.6c-0.3-1.1-0.4-2.3-0.6-3.5c0-1.5,0-2.9,0-4.3
	c0-0.2,0.1-0.4,0.1-0.6c0.1-2.5,0.5-4.9,1.3-7.2c0.9-2.6,2.2-4.9,4.4-6.7c2.6-2.1,5.6-2.8,8.9-2.9c3.4-0.1,6.6,0.5,9.9,1.2
	c1.2,0.2,2.5,0.5,3.8,0.5c1.9,0,3.9-0.4,5.8-0.6c3.2-0.4,6.4-0.3,9.5,0.4c3.1,0.8,5.8,2.2,7.9,4.6c2.1,2.6,3.2,5.6,3.7,8.8
	c0.1,0.9,0.2,1.9,0.5,3C77.4,51.3,77.4,52.6,77.4,53.9z"/>
</svg>
