<?xml version="1.0" encoding="utf-8"?>
<!-- Generator: Adobe Illustrator 21.0.0, SVG Export Plug-In . SVG Version: 6.00 Build 0)  -->
<svg version="1.1" id="Layer_1" xmlns="http://www.w3.org/2000/svg" xmlns:xlink="http://www.w3.org/1999/xlink" x="0px" y="0px"
	 viewBox="0 0 100 100" style="enable-background:new 0 0 100 100;" xml:space="preserve">
<style type="text/css">
	.st0{fill:#231F20;}
</style>
<path class="st0" d="M53.7,16.8c1.5-3.4,4.1-5.8,7.5-7.4c4.6-2,9.5-2.1,14.5-1.7c0.9,4.4-0.4,9.6-4.6,12.5
	c-3.2,2.2-6.7,2.9-10.4,2.6c-1.7-0.1-3.4-0.5-5.1-0.9c6.1-2.4,11.2-5.5,15.3-10.7C64.9,14,59,16.9,52.9,19.7c0-0.1,0-0.1-0.1-0.3
	C53,18.5,53.3,17.6,53.7,16.8z"/>
<path class="st0" d="M43.4,15.5c0.3-0.3,0.4-0.5,0.5-0.9c4.5,1.5,7.5,5.9,7.3,10.8c-1.5-0.4-2.9-0.9-4.5-1.3
	c-0.1-1.1-0.3-2.2-0.7-3.4c-0.4-1.5-1.1-2.8-2.2-3.7C43.3,16.5,43.1,16.1,43.4,15.5z"/>
<path class="st0" d="M86.5,55.2c-0.1,0.5-0.1,1.1-0.3,1.6C84.7,67.6,80.2,77.2,73,85.5c-4.9,5.5-10.8,8-18.3,6.9
	c-3.3-0.7-6.7-0.5-10,0c-4.2,0.7-8.2-0.3-11.9-2.6c-3.8-2.5-6.9-5.8-9.5-9.5c-4.5-6.2-7.8-13.1-9.5-20.6c-0.4-1.5-0.5-3-0.8-4.6
	c0-2,0-3.8,0-5.7c0-0.3,0.1-0.5,0.1-0.8c0.1-3.3,0.7-6.5,1.7-9.5c1.2-3.4,2.9-6.5,5.8-8.8c3.4-2.8,7.4-3.7,11.7-3.8
	c4.5-0.1,8.7,0.7,13.1,1.6c1.6,0.3,3.3,0.7,5,0.7c2.5,0,5.1-0.5,7.7-0.8c4.2-0.5,8.4-0.4,12.5,0.5c4.1,1.1,7.7,2.9,10.4,6.1
	c2.8,3.4,4.2,7.4,4.9,11.6c0.1,1.2,0.3,2.5,0.7,4C86.5,51.7,86.5,53.4,86.5,55.2z"/>
</svg>
