<?xml version="1.0" encoding="utf-8"?>
<!-- Generator: Adobe Illustrator 21.0.0, SVG Export Plug-In . SVG Version: 6.00 Build 0)  -->
<svg version="1.1" id="Layer_1" xmlns="http://www.w3.org/2000/svg" xmlns:xlink="http://www.w3.org/1999/xlink" x="0px" y="0px"
	 viewBox="0 0 100 100" style="enable-background:new 0 0 100 100;" xml:space="preserve">
<style type="text/css">
	.st0{fill:#231F20;}
	.st1{fill:#FFFFFF;}
</style>
<g>
	<path class="st0" d="M100,50c0,27.6-22.4,50-50,50C22.4,100,0,77.6,0,50C0,22.4,22.4,0,50,0C77.6,0,100,22.4,100,50"/>
	<path class="st1" d="M51.8,26.8c0.2-0.7,0.4-1.4,0.7-2c1.1-2.6,3.1-4.4,5.7-5.6c3.5-1.5,7.2-1.6,11-1.3c0.7,3.3-0.3,7.3-3.5,9.5
		c-2.4,1.7-5.1,2.2-7.9,2c-1.3-0.1-2.6-0.4-3.9-0.7c4.6-1.8,8.5-4.2,11.6-8.1c-4.5,2.1-9,4.3-13.6,6.4
		C51.9,26.9,51.9,26.9,51.8,26.8z"/>
	<path class="st1" d="M45.1,23.1c3.4,1.1,5.7,4.5,5.5,8.2c-1.1-0.3-2.2-0.7-3.4-1c-0.1-0.8-0.2-1.7-0.5-2.6
		c-0.3-1.1-0.8-2.1-1.7-2.8c-0.4-0.3-0.5-0.6-0.3-1.1C44.9,23.6,45,23.4,45.1,23.1z"/>
	<path class="st1" d="M76.9,47c-0.5-3.2-1.6-6.2-3.7-8.8c-2.1-2.4-4.8-3.8-7.9-4.6c-3.1-0.7-6.3-0.8-9.5-0.4
		c-1.9,0.2-3.9,0.6-5.8,0.6c-1.3,0-2.6-0.3-3.8-0.5c-3.3-0.7-6.5-1.3-9.9-1.2C33,32.2,30,32.9,27.4,35c-2.2,1.8-3.5,4.1-4.4,6.7
		c-0.8,2.3-1.2,4.7-1.3,7.2c0,0.2-0.1,0.4-0.1,0.6c0,1.4,0,2.8,0,4.3c0.2,1.2,0.3,2.4,0.6,3.5c1.3,5.7,3.8,10.9,7.2,15.6
		c2,2.8,4.3,5.3,7.2,7.2c2.8,1.8,5.8,2.5,9,2c2.5-0.4,5.1-0.5,7.6,0c5.7,0.9,10.2-1,13.9-5.2c5.5-6.3,8.9-13.6,10.1-21.8
		c0.1-0.4,0.1-0.8,0.2-1.2c0-1.3,0-2.6,0-3.9C77.1,48.9,77,47.9,76.9,47z"/>
</g>
</svg>
